# The Great Editor v0.0.1
mtllib floor_1.mtl
o floor_1
v 15.68227265081419 -3.1304364721880122 0
v 15.68227265081419 -3.1304364721880122 -0.1
v 21.83772832334572 -3.0824405190741504 0
v 21.83772832334572 -3.0824405190741504 -0.1
v 21.818118162474303 -9.631601392095586 0
v 21.818118162474303 -9.631601392095586 -0.1
v 15.682863318310316 -9.643355675268513 0
v 15.682863318310316 -9.643355675268513 -0.1
vt 15.68227265081419 -3.1304364721880122 0
vt 21.83772832334572 -3.0824405190741504 0
vt 21.818118162474303 -9.631601392095586 0
vt 15.682863318310316 -9.643355675268513 0
vn 0 0 1
vn 0 0 -1
usemtl floor_1
s off
f 1/1/1 7/4/1 5/3/1
f 6/3/2 8/4/2 2/1/2
f 1/1/1 5/3/1 3/2/1
f 4/2/2 6/3/2 2/1/2
